<svg width="28" height="40" viewBox="0 0 28 40" fill="none" xmlns="http://www.w3.org/2000/svg">
<path d="M1.52734 0L3.38813 1.83349V34.0615L1.52734 35.9364V0Z" fill="white"/>
<path d="M3.76074 2.2002L5.62153 3.80917V32.0909L3.76074 33.7363V2.2002Z" fill="white"/>
<path d="M5.99316 4.0332L7.85395 5.45509V30.4483L5.99316 31.9023V4.0332Z" fill="white"/>
<path d="M15.2976 12.834L16.4141 13.9341L8.97097 21.268L7.85449 20.168L15.2976 12.834Z" fill="white"/>
<path d="M16.7859 14.3008L17.9024 15.4009L10.4592 22.7348L9.34277 21.6347L16.7859 14.3008Z" fill="white"/>
<path d="M18.2752 15.7676L19.3917 16.8677L11.9485 24.2016L10.832 23.1015L18.2752 15.7676Z" fill="white"/>
<path d="M27.9691 38.5265L25.1548 38.5038L1.52672 15.4198L1.52673 12.4112L27.9691 38.5265Z" fill="white"/>
<path d="M24.7822 38.5068L21.805 38.5068L1.53561 18.3352L1.53561 15.7683L24.7822 38.5068Z" fill="white"/>
<path d="M21.4329 38.5031L18.6418 38.5031L1.52911 21.085L1.52913 18.7014L21.4329 38.5031Z" fill="white"/>
</svg>
